<?xml version="1.0" encoding="UTF-8" standalone="no"?>
<!DOCTYPE svg PUBLIC "-//W3C//DTD SVG 1.0//EN"
 "http://www.w3.org/TR/2001/REC-SVG-20010904/DTD/svg10.dtd" [
 <!ATTLIST svg xmlns:xlink CDATA #FIXED "http://www.w3.org/1999/xlink">
]>
<!-- Generated by Graphviz version 2.16.1 (Thu Jan 17 17:16:42 GMT 2008)
     For user: wizest -->
<!-- Title: untitled Pages: 1 -->
<svg width="186pt" height="183pt"
 viewBox="0.00 0.00 186.00 183.00" xmlns="http://www.w3.org/2000/svg" xmlns:xlink="http://www.w3.org/1999/xlink">
<g id="graph0" class="graph" transform="scale(1 1) rotate(0) translate(4 179)">
<title>untitled</title>
<polygon style="fill:white;stroke:white;" points="-4,4 -4,-179 182,-179 182,4 -4,4"/>
<!-- 3 -->
<g id="node1" class="node"><title>3</title>
<ellipse style="fill:white;stroke:black;stroke-width:2;" cx="24" cy="-54" rx="23.1577" ry="23.1577"/>
<text text-anchor="middle" x="24" y="-46.575" style="font-family:Bitstream Vera Sans;font-size:22.00;">3</text>
</g>
<!-- 4 -->
<g id="node3" class="node"><title>4</title>
<ellipse style="fill:white;stroke:black;stroke-width:2;" cx="98" cy="-76" rx="23.1577" ry="23.1577"/>
<text text-anchor="middle" x="98" y="-68.575" style="font-family:Bitstream Vera Sans;font-size:22.00;">4</text>
</g>
<!-- 3&#45;&#45;4 -->
<g id="edge2" class="edge"><title>3&#45;&#45;4</title>
<path style="fill:none;stroke:black;stroke-width:2;" d="M46,-61C55,-64 66,-67 76,-69"/>
<text text-anchor="middle" x="63" y="-49.275" style="font-family:Times New Roman;font-size:14.00;">100</text>
</g>
<!-- 1 -->
<g id="node4" class="node"><title>1</title>
<ellipse style="fill:white;stroke:black;stroke-width:2;" cx="154" cy="-24" rx="23.1577" ry="23.1577"/>
<text text-anchor="middle" x="154" y="-16.575" style="font-family:Bitstream Vera Sans;font-size:22.00;">1</text>
</g>
<!-- 1&#45;&#45;4 -->
<g id="edge4" class="edge"><title>1&#45;&#45;4</title>
<path style="fill:none;stroke:black;stroke-width:2;" d="M137,-40C130,-46 122,-54 115,-60"/>
<text text-anchor="middle" x="133" y="-53.275" style="font-family:Times New Roman;font-size:14.00;">20</text>
</g>
<!-- 2 -->
<g id="node6" class="node"><title>2</title>
<ellipse style="fill:white;stroke:black;stroke-width:2;" cx="116" cy="-151" rx="23.1577" ry="23.1577"/>
<text text-anchor="middle" x="116" y="-143.575" style="font-family:Bitstream Vera Sans;font-size:22.00;">2</text>
</g>
<!-- 2&#45;&#45;4 -->
<g id="edge6" class="edge"><title>2&#45;&#45;4</title>
<path style="fill:none;stroke:black;stroke-width:2;" d="M111,-128C108,-119 106,-108 103,-98"/>
<text text-anchor="middle" x="101" y="-109.275" style="font-family:Times New Roman;font-size:14.00;">3</text>
</g>
</g>
</svg>
